<mxfile host="app.diagrams.net" agent="Mozilla/5.0 (Windows NT 10.0; Win64; x64; rv:134.0) Gecko/20100101 Firefox/134.0" version="26.0.10">
  <diagram id="prtHgNgQTEPvFCAcTncT" name="Page-1">
    <mxGraphModel dx="2257" dy="788" grid="1" gridSize="10" guides="1" tooltips="1" connect="1" arrows="1" fold="1" page="1" pageScale="1" pageWidth="827" pageHeight="1169" math="0" shadow="0">
      <root>
        <mxCell id="0" />
        <mxCell id="1" parent="0" />
        <mxCell id="16awIQKgBBGIW1NUnGCz-1" value="Digihelppari" style="rounded=1;whiteSpace=wrap;html=1;" vertex="1" parent="1">
          <mxGeometry x="-520" y="40" width="74" height="30" as="geometry" />
        </mxCell>
        <mxCell id="16awIQKgBBGIW1NUnGCz-2" value="1. Frontend" style="rounded=1;whiteSpace=wrap;html=1;" vertex="1" parent="1">
          <mxGeometry x="-760" y="110" width="74" height="30" as="geometry" />
        </mxCell>
        <mxCell id="16awIQKgBBGIW1NUnGCz-3" value="2. Backend" style="rounded=1;whiteSpace=wrap;html=1;" vertex="1" parent="1">
          <mxGeometry x="-530" y="110" width="74" height="30" as="geometry" />
        </mxCell>
        <mxCell id="16awIQKgBBGIW1NUnGCz-4" value="&lt;font style=&quot;font-size: 10px;&quot;&gt;3.Gamification System&lt;/font&gt;" style="rounded=1;whiteSpace=wrap;html=1;" vertex="1" parent="1">
          <mxGeometry x="-300" y="110" width="74" height="30" as="geometry" />
        </mxCell>
        <mxCell id="16awIQKgBBGIW1NUnGCz-7" value="&lt;font&gt;1.1 UI Components&lt;/font&gt;" style="rounded=1;whiteSpace=wrap;html=1;fontSize=9;" vertex="1" parent="1">
          <mxGeometry x="-740" y="150" width="74" height="22" as="geometry" />
        </mxCell>
        <mxCell id="16awIQKgBBGIW1NUnGCz-8" value="&lt;font&gt;1.1.1 Buttons&lt;/font&gt;" style="rounded=1;whiteSpace=wrap;html=1;spacing=0;fontSize=9;" vertex="1" parent="1">
          <mxGeometry x="-710" y="182" width="74" height="22" as="geometry" />
        </mxCell>
        <mxCell id="16awIQKgBBGIW1NUnGCz-9" value="&lt;font&gt;1.1.2 Animations&lt;/font&gt;" style="rounded=1;whiteSpace=wrap;html=1;strokeWidth=1;spacing=0;fontSize=9;" vertex="1" parent="1">
          <mxGeometry x="-710" y="210" width="74" height="22" as="geometry" />
        </mxCell>
        <mxCell id="16awIQKgBBGIW1NUnGCz-10" value="&lt;font&gt;1.2 Calendar &amp;amp; Reminders&lt;font&gt;&lt;br&gt;&lt;/font&gt;&lt;/font&gt;" style="rounded=1;whiteSpace=wrap;html=1;spacing=0;fontSize=9;" vertex="1" parent="1">
          <mxGeometry x="-740" y="242" width="74" height="22" as="geometry" />
        </mxCell>
        <mxCell id="16awIQKgBBGIW1NUnGCz-11" value="&lt;font&gt;1.3 Memory Lists&lt;/font&gt;" style="rounded=1;whiteSpace=wrap;html=1;spacing=0;fontSize=9;" vertex="1" parent="1">
          <mxGeometry x="-740" y="332" width="74" height="22" as="geometry" />
        </mxCell>
        <mxCell id="16awIQKgBBGIW1NUnGCz-12" value="&lt;font&gt;1.4 Finance Section&lt;/font&gt;" style="rounded=1;whiteSpace=wrap;html=1;spacing=0;fontSize=9;" vertex="1" parent="1">
          <mxGeometry x="-740" y="420" width="74" height="22" as="geometry" />
        </mxCell>
        <mxCell id="16awIQKgBBGIW1NUnGCz-13" value="&lt;font&gt;1.5 Important Links&lt;/font&gt;" style="rounded=1;whiteSpace=wrap;html=1;spacing=0;fontSize=9;" vertex="1" parent="1">
          <mxGeometry x="-740" y="510" width="74" height="22" as="geometry" />
        </mxCell>
        <mxCell id="16awIQKgBBGIW1NUnGCz-15" value="&lt;font&gt;2.1 User Authentification&lt;/font&gt;" style="rounded=1;whiteSpace=wrap;html=1;spacing=0;fontSize=9;" vertex="1" parent="1">
          <mxGeometry x="-510" y="150" width="74" height="22" as="geometry" />
        </mxCell>
        <mxCell id="16awIQKgBBGIW1NUnGCz-16" value="&lt;font&gt;2.2 Data Storage&lt;/font&gt;" style="rounded=1;whiteSpace=wrap;html=1;spacing=0;fontSize=9;" vertex="1" parent="1">
          <mxGeometry x="-510" y="240" width="74" height="22" as="geometry" />
        </mxCell>
        <mxCell id="16awIQKgBBGIW1NUnGCz-17" value="&lt;font&gt;2.3 Finance Data Processing&lt;/font&gt;" style="rounded=1;whiteSpace=wrap;html=1;spacing=0;fontSize=9;" vertex="1" parent="1">
          <mxGeometry x="-510" y="332" width="74" height="22" as="geometry" />
        </mxCell>
        <mxCell id="16awIQKgBBGIW1NUnGCz-18" value="&lt;font&gt;3.1 Reward Mechanisms&lt;/font&gt;" style="rounded=1;whiteSpace=wrap;html=1;fontSize=9;" vertex="1" parent="1">
          <mxGeometry x="-280" y="150" width="74" height="22" as="geometry" />
        </mxCell>
        <mxCell id="16awIQKgBBGIW1NUnGCz-19" value="&lt;font&gt;3.2 Progress Tracking&lt;/font&gt;" style="rounded=1;whiteSpace=wrap;html=1;spacing=0;fontSize=9;" vertex="1" parent="1">
          <mxGeometry x="-280" y="240" width="74" height="22" as="geometry" />
        </mxCell>
        <mxCell id="16awIQKgBBGIW1NUnGCz-20" value="1.2.1 Notifications" style="rounded=1;whiteSpace=wrap;html=1;spacing=0;fontSize=9;" vertex="1" parent="1">
          <mxGeometry x="-710" y="272" width="74" height="22" as="geometry" />
        </mxCell>
        <mxCell id="16awIQKgBBGIW1NUnGCz-21" value="1.2.2 Add/edit/delete events" style="rounded=1;whiteSpace=wrap;html=1;spacing=0;fontSize=9;" vertex="1" parent="1">
          <mxGeometry x="-710" y="302" width="74" height="22" as="geometry" />
        </mxCell>
        <mxCell id="16awIQKgBBGIW1NUnGCz-22" value="1.3.1 Create/Edit Lists" style="rounded=1;whiteSpace=wrap;html=1;spacing=0;fontSize=9;" vertex="1" parent="1">
          <mxGeometry x="-710" y="362" width="74" height="22" as="geometry" />
        </mxCell>
        <mxCell id="16awIQKgBBGIW1NUnGCz-23" value="1.3.2 Attach lists to calendar" style="rounded=1;whiteSpace=wrap;html=1;spacing=0;fontSize=9;" vertex="1" parent="1">
          <mxGeometry x="-710" y="390" width="74" height="22" as="geometry" />
        </mxCell>
        <mxCell id="16awIQKgBBGIW1NUnGCz-24" value="1.4.1 Expense Tracking" style="rounded=1;whiteSpace=wrap;html=1;spacing=0;fontSize=9;" vertex="1" parent="1">
          <mxGeometry x="-710" y="450" width="74" height="22" as="geometry" />
        </mxCell>
        <mxCell id="16awIQKgBBGIW1NUnGCz-25" value="1.4.2 Expense Planning" style="rounded=1;whiteSpace=wrap;html=1;spacing=0;fontSize=9;" vertex="1" parent="1">
          <mxGeometry x="-710" y="480" width="74" height="22" as="geometry" />
        </mxCell>
        <mxCell id="16awIQKgBBGIW1NUnGCz-29" value="1.5.1 Add/Delete Links" style="rounded=1;whiteSpace=wrap;html=1;spacing=0;fontSize=9;" vertex="1" parent="1">
          <mxGeometry x="-710" y="540" width="74" height="22" as="geometry" />
        </mxCell>
        <mxCell id="16awIQKgBBGIW1NUnGCz-30" value="1.5.2 Open Link" style="rounded=1;whiteSpace=wrap;html=1;spacing=0;fontSize=9;" vertex="1" parent="1">
          <mxGeometry x="-710" y="568" width="74" height="22" as="geometry" />
        </mxCell>
        <mxCell id="16awIQKgBBGIW1NUnGCz-31" value="2.1.1 Sign Up" style="rounded=1;whiteSpace=wrap;html=1;spacing=0;fontSize=9;" vertex="1" parent="1">
          <mxGeometry x="-480" y="178" width="74" height="22" as="geometry" />
        </mxCell>
        <mxCell id="16awIQKgBBGIW1NUnGCz-32" value="2.1.2 Login" style="rounded=1;whiteSpace=wrap;html=1;spacing=0;fontSize=9;" vertex="1" parent="1">
          <mxGeometry x="-480" y="210" width="74" height="22" as="geometry" />
        </mxCell>
        <mxCell id="16awIQKgBBGIW1NUnGCz-33" value="&lt;font&gt;2.2.1 Secure data storage&lt;/font&gt;" style="rounded=1;whiteSpace=wrap;html=1;spacing=0;fontSize=9;" vertex="1" parent="1">
          <mxGeometry x="-480" y="270" width="74" height="22" as="geometry" />
        </mxCell>
        <mxCell id="16awIQKgBBGIW1NUnGCz-34" value="2.2.2 Data sync across devices" style="rounded=1;whiteSpace=wrap;html=1;spacing=0;fontSize=9;" vertex="1" parent="1">
          <mxGeometry x="-480" y="300" width="74" height="22" as="geometry" />
        </mxCell>
        <mxCell id="16awIQKgBBGIW1NUnGCz-35" value="2.3.1 Graph creation/updates " style="rounded=1;whiteSpace=wrap;html=1;spacing=0;fontSize=9;" vertex="1" parent="1">
          <mxGeometry x="-480" y="362" width="74" height="22" as="geometry" />
        </mxCell>
        <mxCell id="16awIQKgBBGIW1NUnGCz-37" value="3.2.1 Expense tracking graph" style="rounded=1;whiteSpace=wrap;html=1;spacing=0;fontSize=9;" vertex="1" parent="1">
          <mxGeometry x="-250" y="270" width="74" height="22" as="geometry" />
        </mxCell>
        <mxCell id="16awIQKgBBGIW1NUnGCz-38" value="3.1.1 XP System" style="rounded=1;whiteSpace=wrap;html=1;spacing=0;fontSize=9;" vertex="1" parent="1">
          <mxGeometry x="-250" y="178" width="74" height="22" as="geometry" />
        </mxCell>
        <mxCell id="16awIQKgBBGIW1NUnGCz-39" value="3.1.2 Avatar customization" style="rounded=1;whiteSpace=wrap;html=1;spacing=0;fontSize=9;" vertex="1" parent="1">
          <mxGeometry x="-250" y="210" width="74" height="22" as="geometry" />
        </mxCell>
        <mxCell id="16awIQKgBBGIW1NUnGCz-40" value="Jopihelppari" style="rounded=1;whiteSpace=wrap;html=1;" vertex="1" parent="1">
          <mxGeometry x="-480" y="610" width="74" height="30" as="geometry" />
        </mxCell>
        <mxCell id="16awIQKgBBGIW1NUnGCz-41" value="1. Frontend" style="rounded=1;whiteSpace=wrap;html=1;" vertex="1" parent="1">
          <mxGeometry x="-600" y="680" width="74" height="30" as="geometry" />
        </mxCell>
        <mxCell id="16awIQKgBBGIW1NUnGCz-42" value="2. Backend" style="rounded=1;whiteSpace=wrap;html=1;" vertex="1" parent="1">
          <mxGeometry x="-354" y="680" width="74" height="30" as="geometry" />
        </mxCell>
        <mxCell id="16awIQKgBBGIW1NUnGCz-43" value="&lt;font&gt;1.1 UI Components&lt;/font&gt;" style="rounded=1;whiteSpace=wrap;html=1;fontSize=9;" vertex="1" parent="1">
          <mxGeometry x="-580" y="720" width="74" height="22" as="geometry" />
        </mxCell>
        <mxCell id="16awIQKgBBGIW1NUnGCz-44" value="&lt;font&gt;1.2 Accessibility features&lt;br&gt;&lt;/font&gt;" style="rounded=1;whiteSpace=wrap;html=1;fontSize=9;" vertex="1" parent="1">
          <mxGeometry x="-580" y="810" width="74" height="22" as="geometry" />
        </mxCell>
        <mxCell id="16awIQKgBBGIW1NUnGCz-45" value="&lt;font&gt;1.1.1 Buttons&lt;/font&gt;" style="rounded=1;whiteSpace=wrap;html=1;spacing=0;fontSize=9;" vertex="1" parent="1">
          <mxGeometry x="-560" y="750" width="74" height="22" as="geometry" />
        </mxCell>
        <mxCell id="16awIQKgBBGIW1NUnGCz-46" value="&lt;font&gt;1.1.2 Animations&lt;/font&gt;" style="rounded=1;whiteSpace=wrap;html=1;strokeWidth=1;spacing=0;fontSize=9;" vertex="1" parent="1">
          <mxGeometry x="-560" y="778" width="74" height="22" as="geometry" />
        </mxCell>
        <mxCell id="16awIQKgBBGIW1NUnGCz-47" value="1.3 Me" style="rounded=1;whiteSpace=wrap;html=1;fontSize=9;" vertex="1" parent="1">
          <mxGeometry x="-580" y="930" width="74" height="22" as="geometry" />
        </mxCell>
        <mxCell id="16awIQKgBBGIW1NUnGCz-48" value="1.4 Work" style="rounded=1;whiteSpace=wrap;html=1;fontSize=9;" vertex="1" parent="1">
          <mxGeometry x="-584" y="1020" width="74" height="22" as="geometry" />
        </mxCell>
        <mxCell id="16awIQKgBBGIW1NUnGCz-49" value="1.5 Calendar" style="rounded=1;whiteSpace=wrap;html=1;fontSize=9;" vertex="1" parent="1">
          <mxGeometry x="-584" y="1140" width="74" height="22" as="geometry" />
        </mxCell>
        <mxCell id="16awIQKgBBGIW1NUnGCz-51" value="1.2.1 Simplified Navigation" style="rounded=1;whiteSpace=wrap;html=1;fontSize=9;" vertex="1" parent="1">
          <mxGeometry x="-560" y="840" width="74" height="22" as="geometry" />
        </mxCell>
        <mxCell id="16awIQKgBBGIW1NUnGCz-52" value="1.2.2 Text-to-speech support" style="rounded=1;whiteSpace=wrap;html=1;fontSize=9;" vertex="1" parent="1">
          <mxGeometry x="-560" y="870" width="74" height="22" as="geometry" />
        </mxCell>
        <mxCell id="16awIQKgBBGIW1NUnGCz-53" value="1.2.3 High-contrast mode" style="rounded=1;whiteSpace=wrap;html=1;fontSize=9;" vertex="1" parent="1">
          <mxGeometry x="-560" y="900" width="74" height="22" as="geometry" />
        </mxCell>
        <mxCell id="16awIQKgBBGIW1NUnGCz-54" value="1.3.1 Profile customization" style="rounded=1;whiteSpace=wrap;html=1;fontSize=9;" vertex="1" parent="1">
          <mxGeometry x="-560" y="960" width="74" height="22" as="geometry" />
        </mxCell>
        <mxCell id="16awIQKgBBGIW1NUnGCz-55" value="&lt;font style=&quot;font-size: 6px;&quot;&gt;1.3.2 Upload &amp;amp; display pictures/videos&lt;/font&gt;" style="rounded=1;whiteSpace=wrap;html=1;fontSize=9;" vertex="1" parent="1">
          <mxGeometry x="-560" y="988" width="74" height="22" as="geometry" />
        </mxCell>
        <mxCell id="16awIQKgBBGIW1NUnGCz-56" value="1.4.1 Add &amp;amp; edit job experience" style="rounded=1;whiteSpace=wrap;html=1;fontSize=9;" vertex="1" parent="1">
          <mxGeometry x="-560" y="1050" width="74" height="22" as="geometry" />
        </mxCell>
        <mxCell id="16awIQKgBBGIW1NUnGCz-57" value="&lt;font style=&quot;font-size: 8px;&quot;&gt;1.4.2 Display images/videos&lt;/font&gt;" style="rounded=1;whiteSpace=wrap;html=1;fontSize=9;" vertex="1" parent="1">
          <mxGeometry x="-560" y="1080" width="74" height="22" as="geometry" />
        </mxCell>
        <mxCell id="16awIQKgBBGIW1NUnGCz-58" value="1.4.3 Education history" style="rounded=1;whiteSpace=wrap;html=1;fontSize=9;" vertex="1" parent="1">
          <mxGeometry x="-560" y="1108" width="74" height="22" as="geometry" />
        </mxCell>
        <mxCell id="16awIQKgBBGIW1NUnGCz-59" value="&lt;font style=&quot;font-size: 8px;&quot;&gt;1.5.1 Create &amp;amp; use week layouts&lt;/font&gt;" style="rounded=1;whiteSpace=wrap;html=1;fontSize=9;" vertex="1" parent="1">
          <mxGeometry x="-560" y="1169" width="74" height="22" as="geometry" />
        </mxCell>
        <mxCell id="16awIQKgBBGIW1NUnGCz-62" value="" style="endArrow=none;html=1;rounded=0;entryX=0.272;entryY=1.001;entryDx=0;entryDy=0;entryPerimeter=0;" edge="1" parent="1">
          <mxGeometry width="50" height="50" relative="1" as="geometry">
            <mxPoint x="-760" y="600.5469230769231" as="sourcePoint" />
            <mxPoint x="-759.8719999999998" y="139.99999999999997" as="targetPoint" />
          </mxGeometry>
        </mxCell>
        <mxCell id="16awIQKgBBGIW1NUnGCz-63" value="" style="endArrow=none;html=1;rounded=0;" edge="1" parent="1">
          <mxGeometry width="50" height="50" relative="1" as="geometry">
            <mxPoint x="-720" y="80" as="sourcePoint" />
            <mxPoint x="-260" y="80" as="targetPoint" />
          </mxGeometry>
        </mxCell>
        <mxCell id="16awIQKgBBGIW1NUnGCz-64" value="" style="endArrow=none;html=1;rounded=0;exitX=0.537;exitY=-0.019;exitDx=0;exitDy=0;exitPerimeter=0;" edge="1" parent="1" source="16awIQKgBBGIW1NUnGCz-2">
          <mxGeometry width="50" height="50" relative="1" as="geometry">
            <mxPoint x="-770" y="130" as="sourcePoint" />
            <mxPoint x="-720" y="80" as="targetPoint" />
          </mxGeometry>
        </mxCell>
        <mxCell id="16awIQKgBBGIW1NUnGCz-65" value="" style="endArrow=none;html=1;rounded=0;exitX=0.537;exitY=-0.019;exitDx=0;exitDy=0;exitPerimeter=0;" edge="1" parent="1">
          <mxGeometry width="50" height="50" relative="1" as="geometry">
            <mxPoint x="-260" y="110" as="sourcePoint" />
            <mxPoint x="-260" y="80" as="targetPoint" />
          </mxGeometry>
        </mxCell>
        <mxCell id="16awIQKgBBGIW1NUnGCz-66" value="" style="endArrow=none;html=1;rounded=0;" edge="1" parent="1">
          <mxGeometry width="50" height="50" relative="1" as="geometry">
            <mxPoint x="-480" y="80" as="sourcePoint" />
            <mxPoint x="-480" y="70" as="targetPoint" />
          </mxGeometry>
        </mxCell>
        <mxCell id="16awIQKgBBGIW1NUnGCz-67" value="" style="endArrow=none;html=1;rounded=0;exitX=0;exitY=0.455;exitDx=0;exitDy=0;exitPerimeter=0;" edge="1" parent="1">
          <mxGeometry width="50" height="50" relative="1" as="geometry">
            <mxPoint x="-750" y="160.95999999999998" as="sourcePoint" />
            <mxPoint x="-760" y="160.95" as="targetPoint" />
            <Array as="points">
              <mxPoint x="-760" y="160.95" />
            </Array>
          </mxGeometry>
        </mxCell>
        <mxCell id="16awIQKgBBGIW1NUnGCz-68" value="" style="endArrow=none;html=1;rounded=0;exitX=0;exitY=0.455;exitDx=0;exitDy=0;exitPerimeter=0;" edge="1" parent="1">
          <mxGeometry width="50" height="50" relative="1" as="geometry">
            <mxPoint x="-750" y="252.90999999999997" as="sourcePoint" />
            <mxPoint x="-760" y="252.89999999999998" as="targetPoint" />
            <Array as="points">
              <mxPoint x="-760" y="252.89999999999998" />
            </Array>
          </mxGeometry>
        </mxCell>
        <mxCell id="16awIQKgBBGIW1NUnGCz-69" value="" style="endArrow=none;html=1;rounded=0;exitX=0;exitY=0.455;exitDx=0;exitDy=0;exitPerimeter=0;" edge="1" parent="1">
          <mxGeometry width="50" height="50" relative="1" as="geometry">
            <mxPoint x="-750" y="342.90999999999997" as="sourcePoint" />
            <mxPoint x="-760" y="342.9" as="targetPoint" />
            <Array as="points">
              <mxPoint x="-760" y="342.9" />
            </Array>
          </mxGeometry>
        </mxCell>
        <mxCell id="16awIQKgBBGIW1NUnGCz-70" value="" style="endArrow=none;html=1;rounded=0;exitX=0;exitY=0.455;exitDx=0;exitDy=0;exitPerimeter=0;" edge="1" parent="1">
          <mxGeometry width="50" height="50" relative="1" as="geometry">
            <mxPoint x="-750" y="430.90999999999997" as="sourcePoint" />
            <mxPoint x="-760" y="430.9" as="targetPoint" />
            <Array as="points">
              <mxPoint x="-760" y="430.9" />
            </Array>
          </mxGeometry>
        </mxCell>
        <mxCell id="16awIQKgBBGIW1NUnGCz-71" value="" style="endArrow=none;html=1;rounded=0;exitX=0;exitY=0.455;exitDx=0;exitDy=0;exitPerimeter=0;" edge="1" parent="1">
          <mxGeometry width="50" height="50" relative="1" as="geometry">
            <mxPoint x="-750" y="520.01" as="sourcePoint" />
            <mxPoint x="-760" y="520" as="targetPoint" />
            <Array as="points">
              <mxPoint x="-760" y="520" />
            </Array>
          </mxGeometry>
        </mxCell>
        <mxCell id="16awIQKgBBGIW1NUnGCz-81" value="" style="endArrow=none;html=1;rounded=0;entryX=0.272;entryY=1.001;entryDx=0;entryDy=0;entryPerimeter=0;" edge="1" parent="1">
          <mxGeometry width="50" height="50" relative="1" as="geometry">
            <mxPoint x="-530" y="400" as="sourcePoint" />
            <mxPoint x="-529.8719999999998" y="139.99999999999997" as="targetPoint" />
          </mxGeometry>
        </mxCell>
        <mxCell id="16awIQKgBBGIW1NUnGCz-82" value="" style="endArrow=none;html=1;rounded=0;exitX=0;exitY=0.455;exitDx=0;exitDy=0;exitPerimeter=0;" edge="1" parent="1">
          <mxGeometry width="50" height="50" relative="1" as="geometry">
            <mxPoint x="-520" y="160.95999999999998" as="sourcePoint" />
            <mxPoint x="-530" y="160.95" as="targetPoint" />
            <Array as="points">
              <mxPoint x="-530" y="160.95" />
            </Array>
          </mxGeometry>
        </mxCell>
        <mxCell id="16awIQKgBBGIW1NUnGCz-83" value="" style="endArrow=none;html=1;rounded=0;exitX=0;exitY=0.455;exitDx=0;exitDy=0;exitPerimeter=0;" edge="1" parent="1">
          <mxGeometry width="50" height="50" relative="1" as="geometry">
            <mxPoint x="-520" y="252.90999999999997" as="sourcePoint" />
            <mxPoint x="-530" y="252.89999999999998" as="targetPoint" />
            <Array as="points">
              <mxPoint x="-530" y="252.89999999999998" />
            </Array>
          </mxGeometry>
        </mxCell>
        <mxCell id="16awIQKgBBGIW1NUnGCz-84" value="" style="endArrow=none;html=1;rounded=0;exitX=0;exitY=0.455;exitDx=0;exitDy=0;exitPerimeter=0;" edge="1" parent="1">
          <mxGeometry width="50" height="50" relative="1" as="geometry">
            <mxPoint x="-520" y="342.90999999999997" as="sourcePoint" />
            <mxPoint x="-530" y="342.9" as="targetPoint" />
            <Array as="points">
              <mxPoint x="-530" y="342.9" />
            </Array>
          </mxGeometry>
        </mxCell>
        <mxCell id="16awIQKgBBGIW1NUnGCz-87" value="" style="endArrow=none;html=1;rounded=0;entryX=0.272;entryY=1.001;entryDx=0;entryDy=0;entryPerimeter=0;" edge="1" parent="1">
          <mxGeometry width="50" height="50" relative="1" as="geometry">
            <mxPoint x="-300" y="310" as="sourcePoint" />
            <mxPoint x="-299.87199999999984" y="139.99999999999997" as="targetPoint" />
          </mxGeometry>
        </mxCell>
        <mxCell id="16awIQKgBBGIW1NUnGCz-88" value="" style="endArrow=none;html=1;rounded=0;exitX=0;exitY=0.455;exitDx=0;exitDy=0;exitPerimeter=0;" edge="1" parent="1">
          <mxGeometry width="50" height="50" relative="1" as="geometry">
            <mxPoint x="-290" y="160.95999999999998" as="sourcePoint" />
            <mxPoint x="-300" y="160.95" as="targetPoint" />
            <Array as="points">
              <mxPoint x="-300" y="160.95" />
            </Array>
          </mxGeometry>
        </mxCell>
        <mxCell id="16awIQKgBBGIW1NUnGCz-89" value="" style="endArrow=none;html=1;rounded=0;exitX=0;exitY=0.455;exitDx=0;exitDy=0;exitPerimeter=0;" edge="1" parent="1">
          <mxGeometry width="50" height="50" relative="1" as="geometry">
            <mxPoint x="-290" y="252.90999999999997" as="sourcePoint" />
            <mxPoint x="-300" y="252.89999999999998" as="targetPoint" />
            <Array as="points">
              <mxPoint x="-300" y="252.89999999999998" />
            </Array>
          </mxGeometry>
        </mxCell>
        <mxCell id="16awIQKgBBGIW1NUnGCz-93" value="" style="endArrow=none;html=1;rounded=0;exitX=0.676;exitY=-0.034;exitDx=0;exitDy=0;exitPerimeter=0;" edge="1" parent="1" source="16awIQKgBBGIW1NUnGCz-3">
          <mxGeometry width="50" height="50" relative="1" as="geometry">
            <mxPoint x="-480" y="90" as="sourcePoint" />
            <mxPoint x="-480" y="80" as="targetPoint" />
          </mxGeometry>
        </mxCell>
        <mxCell id="16awIQKgBBGIW1NUnGCz-99" value="&lt;font&gt;2.1 User Authentification&lt;/font&gt;" style="rounded=1;whiteSpace=wrap;html=1;spacing=0;fontSize=9;" vertex="1" parent="1">
          <mxGeometry x="-334" y="718" width="74" height="22" as="geometry" />
        </mxCell>
        <mxCell id="16awIQKgBBGIW1NUnGCz-100" value="2.1.1 Sign Up" style="rounded=1;whiteSpace=wrap;html=1;spacing=0;fontSize=9;" vertex="1" parent="1">
          <mxGeometry x="-304" y="746" width="74" height="22" as="geometry" />
        </mxCell>
        <mxCell id="16awIQKgBBGIW1NUnGCz-101" value="2.1.2 Login" style="rounded=1;whiteSpace=wrap;html=1;spacing=0;fontSize=9;" vertex="1" parent="1">
          <mxGeometry x="-304" y="778" width="74" height="22" as="geometry" />
        </mxCell>
        <mxCell id="16awIQKgBBGIW1NUnGCz-102" value="" style="endArrow=none;html=1;rounded=0;exitX=0;exitY=0.455;exitDx=0;exitDy=0;exitPerimeter=0;" edge="1" parent="1">
          <mxGeometry width="50" height="50" relative="1" as="geometry">
            <mxPoint x="-344" y="728.96" as="sourcePoint" />
            <mxPoint x="-354" y="728.95" as="targetPoint" />
            <Array as="points">
              <mxPoint x="-354" y="728.95" />
            </Array>
          </mxGeometry>
        </mxCell>
        <mxCell id="16awIQKgBBGIW1NUnGCz-104" value="&lt;font&gt;2.2 Data Storage&lt;/font&gt;" style="rounded=1;whiteSpace=wrap;html=1;spacing=0;fontSize=9;" vertex="1" parent="1">
          <mxGeometry x="-330" y="810" width="74" height="22" as="geometry" />
        </mxCell>
        <mxCell id="16awIQKgBBGIW1NUnGCz-105" value="&lt;font&gt;2.2.1 Secure data storage&lt;/font&gt;" style="rounded=1;whiteSpace=wrap;html=1;spacing=0;fontSize=9;" vertex="1" parent="1">
          <mxGeometry x="-300" y="840" width="74" height="22" as="geometry" />
        </mxCell>
        <mxCell id="16awIQKgBBGIW1NUnGCz-106" value="2.2.2 Data sync across devices" style="rounded=1;whiteSpace=wrap;html=1;spacing=0;fontSize=9;" vertex="1" parent="1">
          <mxGeometry x="-300" y="870" width="74" height="22" as="geometry" />
        </mxCell>
      </root>
    </mxGraphModel>
  </diagram>
</mxfile>
